<svg xmlns="http://www.w3.org/2000/svg" version="1.1" xmlns:xlink="http://www.w3.org/1999/xlink" xmlns:svgjs="http://svgjs.com/svgjs" width="1440" height="560" preserveAspectRatio="none" viewBox="0 0 1440 560"><g mask="url(&quot;#SvgjsMask1032&quot;)" fill="none"><rect width="1440" height="560" x="0" y="0" fill="rgba(75, 222, 206, 1)"></rect><path d="M0,327.718C62.137,316.556,124.854,311.007,178.865,278.32C233.869,245.032,269.106,191.657,308.623,140.943C360.192,74.761,443.624,19.799,445.664,-64.077C447.709,-148.153,387.305,-227.472,318.769,-276.215C255.124,-321.479,168.827,-298.417,92.554,-315.209C23.209,-330.476,-40.307,-389.276,-108.739,-370.332C-177.245,-351.367,-206.067,-272.607,-253.282,-219.47C-301.213,-165.527,-362.74,-123.335,-388.202,-55.815C-417.237,21.18,-436.509,108.988,-405.959,185.395C-375.029,262.751,-304.173,323.408,-225.555,350.97C-152.753,376.493,-75.931,341.358,0,327.718" fill="#23bfae"></path><path d="M1440 1049.896C1548.121 1051.943 1665.596 1111.009 1757.815 1054.53 1850.063 998.033 1872.951 874.443 1898.219 769.262 1920.022 678.504 1903.696 587.612 1892.239 494.978 1880.537 400.35900000000004 1894.347 292.434 1830.491 221.637 1766.789 151.01100000000002 1651.951 172.274 1565.47 132.69 1458.55 83.75099999999998 1381.666-48.36500000000001 1264.592-37.38599999999997 1149.379-26.581000000000017 1069.32 87.36000000000001 1007.27 185.03699999999998 950.495 274.41 954.4639999999999 383.523 931.539 486.894 906.376 600.359 826.922 712.684 865.978 822.1469999999999 905.291 932.3299999999999 1021.087 999.494 1129.827 1042.638 1227.943 1081.567 1334.462 1047.8980000000001 1440 1049.896" fill="#87e9de"></path></g><defs><mask id="SvgjsMask1032"><rect width="1440" height="560" fill="#ffffff"></rect></mask></defs></svg>