<svg xmlns="http://www.w3.org/2000/svg" version="1.1" xmlns:xlink="http://www.w3.org/1999/xlink" xmlns:svgjs="http://svgjs.com/svgjs" width="1920" height="1080" preserveAspectRatio="none" viewBox="0 0 1920 1080"><g mask="url(&quot;#SvgjsMask1017&quot;)" fill="none"><rect width="1920" height="1080" x="0" y="0" fill="rgba(75, 222, 206, 1)"></rect><path d="M0,433.675C89.806,426.709,181.677,447.534,263.729,410.37C352.743,370.053,440.173,308.34,476.77,217.733C512.964,128.125,477.643,28.622,455.962,-65.557C435.922,-152.607,413.853,-240.411,355.692,-308.209C297.366,-376.198,212.009,-407.417,130.61,-444.816C35.537,-488.498,-58.401,-569.845,-160.08,-545.181C-261.767,-520.515,-318.094,-412.153,-372.503,-322.776C-420.238,-244.362,-445.188,-156.561,-452.369,-65.041C-459.197,21.984,-438.496,105.068,-412.613,188.434C-383.217,283.117,-376.623,402.772,-291.399,453.426C-205.979,504.196,-99.071,441.359,0,433.675" fill="#23bfae"></path><path d="M1920 1671.513C2066.983 1690.054 2220.557 1821.3980000000001 2348.806 1747.2359999999999 2475.62 1673.904 2454.715 1482.799 2491.536 1341.012 2521.899 1224.093 2541.49 1110.809 2545.436 990.076 2550.195 844.436 2618.841 666.914 2516.9700000000003 562.722 2413.64 457.038 2231.371 537.595 2084.754 518.898 1966.5720000000001 503.827 1856.05 441.39 1738.983 463.514 1615.693 486.81399999999996 1514.373 564.705 1417.895 644.924 1305.513 738.367 1164.621 824.112 1133.54 966.924 1102.158 1111.119 1179.554 1257.222 1257.3429999999998 1382.625 1328.829 1497.868 1431.189 1592.973 1555.503 1647.1680000000001 1669.434 1696.837 1796.69 1655.9589999999998 1920 1671.513" fill="#87e9de"></path></g><defs><mask id="SvgjsMask1017"><rect width="1920" height="1080" fill="#ffffff"></rect></mask></defs></svg>