<svg xmlns="http://www.w3.org/2000/svg" version="1.1" xmlns:xlink="http://www.w3.org/1999/xlink" xmlns:svgjs="http://svgjs.com/svgjs" width="1080" height="1920" preserveAspectRatio="none" viewBox="0 0 1080 1920"><g mask="url(&quot;#SvgjsMask1060&quot;)" fill="none"><rect width="1080" height="1920" x="0" y="0" fill="rgba(75, 222, 206, 1)"></rect><path d="M0,632.314C138.649,618.519,280.539,689.945,409.505,637.203C548.632,580.305,671.537,471.871,730.454,333.587C788.853,196.519,731.733,44.556,725.429,-104.301C718.294,-272.775,800.454,-470.48,690.972,-598.73C581.593,-726.86,376.558,-698.947,208.448,-709.908C71.042,-718.867,-56.202,-674.326,-192.721,-656.348C-359.729,-634.355,-556.935,-703.365,-683.691,-592.422C-809.749,-482.09,-829.384,-282.759,-809.621,-116.406C-791.765,33.894,-639.093,125.602,-581.747,265.675C-520.763,414.635,-601.624,638.437,-465.452,724.258C-328.892,810.323,-160.625,648.296,0,632.314" fill="#23bfae"></path><path d="M1080 2846.835C1250.608 2807.739 1318.999 2605.749 1438.541 2477.901 1525.6680000000001 2384.7200000000003 1621.417 2306.584 1687.297 2197.343 1760.4189999999999 2076.094 1830.636 1951.801 1840.98 1810.588 1852.9099999999999 1647.733 1870.222 1449.9769999999999 1750.152 1339.31 1628.521 1227.205 1432.288 1294.609 1267.364 1281.896 1139.329 1272.027 1016.201 1249.124 890.027 1273.01 752.913 1298.967 615.094 1334.504 509.227 1425.422 393.94500000000005 1524.425 314.751 1658.0149999999999 271.937 1803.818 224.567 1965.135 193.976 2140.243 253.11 2297.628 313.86800000000005 2459.335 453.717 2575.034 597.613 2670.608 743.162 2767.279 909.687 2885.864 1080 2846.835" fill="#87e9de"></path></g><defs><mask id="SvgjsMask1060"><rect width="1080" height="1920" fill="#ffffff"></rect></mask></defs></svg>